<mxfile host="65bd71144e">
    <diagram name="Page-1" id="cjCMoL3ntE1tpkAUmT0z">
        <mxGraphModel dx="765" dy="392" grid="1" gridSize="10" guides="1" tooltips="1" connect="1" arrows="1" fold="1" page="1" pageScale="1" pageWidth="1169" pageHeight="827" math="0" shadow="0">
            <root>
                <mxCell id="0"/>
                <mxCell id="1" parent="0"/>
                <mxCell id="SLv-wD4ZOQMKtNhx8ubq-1" value="InfoBoard" style="rounded=0;whiteSpace=wrap;html=1;fontFamily=Inconsolata;align=left;verticalAlign=top;fillColor=#f5f5f5;fontColor=#333333;strokeColor=#666666;fontStyle=2" parent="1" vertex="1">
                    <mxGeometry x="250" y="270" width="280" height="130" as="geometry"/>
                </mxCell>
                <mxCell id="SLv-wD4ZOQMKtNhx8ubq-2" value="" style="rounded=0;whiteSpace=wrap;html=1;fontFamily=Inconsolata;align=left;verticalAlign=top;fillColor=#f5f5f5;fontColor=#333333;strokeColor=#666666;fontStyle=2" parent="1" vertex="1">
                    <mxGeometry x="250" y="400" width="700" height="120" as="geometry"/>
                </mxCell>
                <mxCell id="SLv-wD4ZOQMKtNhx8ubq-3" value="FracExpBar" style="rounded=0;whiteSpace=wrap;html=1;fontFamily=Inconsolata;align=left;verticalAlign=top;fillColor=#f5f5f5;fontColor=#333333;strokeColor=#666666;fontStyle=2" parent="1" vertex="1">
                    <mxGeometry x="250" y="465" width="700" height="20" as="geometry"/>
                </mxCell>
                <mxCell id="SLv-wD4ZOQMKtNhx8ubq-5" value="Menu" style="rounded=0;whiteSpace=wrap;html=1;fontFamily=Inconsolata;align=left;verticalAlign=top;fillColor=#f5f5f5;fontColor=#333333;strokeColor=#666666;fontStyle=2" parent="1" vertex="1">
                    <mxGeometry x="880" y="130" width="90" height="150" as="geometry"/>
                </mxCell>
                <mxCell id="SLv-wD4ZOQMKtNhx8ubq-6" value="TrayMenu" style="rounded=0;whiteSpace=wrap;html=1;fontFamily=Inconsolata;align=left;verticalAlign=top;fillColor=#f5f5f5;fontColor=#333333;strokeColor=#666666;fontStyle=2" parent="1" vertex="1">
                    <mxGeometry x="1100" y="520" width="60" height="60" as="geometry"/>
                </mxCell>
                <mxCell id="SLv-wD4ZOQMKtNhx8ubq-9" value="RMB Click" style="text;html=1;strokeColor=none;fillColor=none;align=center;verticalAlign=middle;whiteSpace=wrap;rounded=0;fontFamily=Inconsolata;" parent="1" vertex="1">
                    <mxGeometry x="690" y="340" width="60" height="30" as="geometry"/>
                </mxCell>
                <mxCell id="SLv-wD4ZOQMKtNhx8ubq-14" value="" style="endArrow=classic;html=1;rounded=0;dashed=1;entryX=0;entryY=1;entryDx=0;entryDy=0;fontFamily=Inconsolata;exitX=0.605;exitY=-0.003;exitDx=0;exitDy=0;exitPerimeter=0;" parent="1" source="_FR97kM9idJeGWc3kHyc-3" target="SLv-wD4ZOQMKtNhx8ubq-5" edge="1">
                    <mxGeometry width="50" height="50" relative="1" as="geometry">
                        <mxPoint x="940" y="290" as="sourcePoint"/>
                        <mxPoint x="820" y="160" as="targetPoint"/>
                    </mxGeometry>
                </mxCell>
                <mxCell id="SLv-wD4ZOQMKtNhx8ubq-16" value="" style="endArrow=classic;html=1;rounded=0;dashed=1;entryX=0;entryY=1;entryDx=0;entryDy=0;exitX=0;exitY=0;exitDx=0;exitDy=0;fontFamily=Inconsolata;" parent="1" source="SLv-wD4ZOQMKtNhx8ubq-6" target="SLv-wD4ZOQMKtNhx8ubq-5" edge="1">
                    <mxGeometry width="50" height="50" relative="1" as="geometry">
                        <mxPoint x="910" y="360" as="sourcePoint"/>
                        <mxPoint x="820" y="160" as="targetPoint"/>
                    </mxGeometry>
                </mxCell>
                <mxCell id="SLv-wD4ZOQMKtNhx8ubq-17" value="" style="endArrow=classic;html=1;rounded=0;dashed=1;fontFamily=Inconsolata;exitX=0;exitY=0.334;exitDx=0;exitDy=0;exitPerimeter=0;" parent="1" source="SLv-wD4ZOQMKtNhx8ubq-2" edge="1">
                    <mxGeometry width="50" height="50" relative="1" as="geometry">
                        <mxPoint x="250" y="420" as="sourcePoint"/>
                        <mxPoint x="250" y="380" as="targetPoint"/>
                        <Array as="points">
                            <mxPoint x="230" y="420"/>
                            <mxPoint x="230" y="390"/>
                        </Array>
                    </mxGeometry>
                </mxCell>
                <mxCell id="SLv-wD4ZOQMKtNhx8ubq-18" value="Hover" style="text;html=1;strokeColor=none;fillColor=none;align=center;verticalAlign=middle;whiteSpace=wrap;rounded=0;fontFamily=Inconsolata;" parent="1" vertex="1">
                    <mxGeometry x="190" y="420" width="60" height="30" as="geometry"/>
                </mxCell>
                <mxCell id="SLv-wD4ZOQMKtNhx8ubq-19" value="RMB Click" style="text;html=1;strokeColor=none;fillColor=none;align=center;verticalAlign=middle;whiteSpace=wrap;rounded=0;fontFamily=Inconsolata;" parent="1" vertex="1">
                    <mxGeometry x="1070" y="445" width="60" height="30" as="geometry"/>
                </mxCell>
                <mxCell id="lXCuW8lYlnJFcrwpF2MC-5" value="ErrorBoard" style="rounded=0;whiteSpace=wrap;html=1;fontFamily=Inconsolata;align=left;verticalAlign=top;fillColor=#f5f5f5;fontColor=#333333;strokeColor=#666666;fontStyle=2" parent="1" vertex="1">
                    <mxGeometry x="10" y="450" width="170" height="70" as="geometry"/>
                </mxCell>
                <mxCell id="_FR97kM9idJeGWc3kHyc-3" value="&lt;i&gt;ControlRegion&lt;/i&gt;" style="rounded=0;whiteSpace=wrap;html=1;fillColor=none;dashed=1;fontFamily=Inconsolata;strokeWidth=2;align=left;verticalAlign=top;" parent="1" vertex="1">
                    <mxGeometry x="250" y="420" width="700" height="100" as="geometry"/>
                </mxCell>
            </root>
        </mxGraphModel>
    </diagram>
</mxfile>